<svg xmlns="http://www.w3.org/2000/svg" width="57.73" height="51.316" viewBox="0 0 57.73 51.316">
  <path id="Icon_awesome-shopping-cart" data-name="Icon awesome-shopping-cart" d="M52.932,30.2,57.67,9.353a2.4,2.4,0,0,0-2.346-2.939H15.957l-.919-4.491A2.4,2.4,0,0,0,12.682,0H2.405A2.4,2.4,0,0,0,0,2.405v1.6A2.4,2.4,0,0,0,2.405,6.415h7L16.45,40.836a5.613,5.613,0,1,0,6.72.858H44.182a5.611,5.611,0,1,0,6.374-1.043l.553-2.433a2.4,2.4,0,0,0-2.346-2.939h-26.9l-.656-3.207H50.586A2.4,2.4,0,0,0,52.932,30.2Z" fill="#10264e"/>
</svg>
