<svg xmlns="http://www.w3.org/2000/svg" width="161.974" height="62.208" viewBox="0 0 161.974 62.208">
  <g id="Camada_x0020_1" transform="translate(-809 139.25)">
    <g id="_2954717209376" transform="translate(809 -139.25)">
      <g id="Group_5" data-name="Group 5">
        <g id="Group_2" data-name="Group 2" transform="translate(0 6.32)">
          <path id="Path_8" data-name="Path 8" d="M.366,89.746a.357.357,0,0,1-.285-.124.34.34,0,0,1-.072-.3L2.971,65.2a.389.389,0,0,1,.143-.3.478.478,0,0,1,.321-.124h8.814a9.17,9.17,0,0,1,6.012,1.837,6.076,6.076,0,0,1,2.23,4.942q0,.321-.071,1.034l-1.142,9.349a8.336,8.336,0,0,1-1.642,4.1,8.811,8.811,0,0,1-3.55,2.748,12.08,12.08,0,0,1-4.906.963H.366ZM6.325,84.5q0,.178.143.178h3.568a3.234,3.234,0,0,0,2.391-1.017,4.745,4.745,0,0,0,1.248-2.729l.892-7.351a4.943,4.943,0,0,0,.036-.677,3.209,3.209,0,0,0-.749-2.248,2.618,2.618,0,0,0-2.034-.82h-3.5c-.143,0-.214.059-.214.178L6.325,84.5ZM41.007,69.408a.587.587,0,0,1-.16.3.413.413,0,0,1-.3.125H29.7c-.143,0-.215.059-.215.178L28.947,74.4q0,.178.143.178h6.957a.358.358,0,0,1,.286.125.338.338,0,0,1,.071.3l-.5,4.175a.576.576,0,0,1-.16.3.412.412,0,0,1-.3.124H28.482c-.1,0-.166.06-.214.179L27.7,84.5q0,.178.143.178H38.723a.356.356,0,0,1,.286.125.34.34,0,0,1,.071.3l-.5,4.21a.585.585,0,0,1-.161.3.413.413,0,0,1-.3.124H21.739a.361.361,0,0,1-.286-.124.34.34,0,0,1-.071-.3L24.344,65.2a.389.389,0,0,1,.143-.3.478.478,0,0,1,.321-.124H41.185a.358.358,0,0,1,.286.124.34.34,0,0,1,.072.3Zm.677,20.338a.357.357,0,0,1-.285-.124.34.34,0,0,1-.072-.3L44.289,65.2a.389.389,0,0,1,.143-.3.478.478,0,0,1,.322-.124h4.888q.392,0,.393.428L47.643,84.5q0,.178.143.178H58.847a.356.356,0,0,1,.286.125.34.34,0,0,1,.071.3l-.5,4.21a.532.532,0,0,1-.178.3.478.478,0,0,1-.322.124H41.684ZM78.828,64.77a.358.358,0,0,1,.286.124.34.34,0,0,1,.071.3l-.535,4.246a.389.389,0,0,1-.143.3.473.473,0,0,1-.322.124h-6.03c-.143,0-.214.06-.214.179L69.587,89.318a.576.576,0,0,1-.16.3.416.416,0,0,1-.3.124H64.2a.359.359,0,0,1-.286-.124.34.34,0,0,1-.071-.3L66.2,70.051c0-.119-.048-.179-.143-.179H60.2a.354.354,0,0,1-.285-.124.34.34,0,0,1-.072-.3l.5-4.246a.59.59,0,0,1,.16-.3.416.416,0,0,1,.3-.124H78.828ZM92.066,89.746a.386.386,0,0,1-.286-.107.535.535,0,0,1-.143-.25l-.5-3.175c-.047-.1-.107-.143-.178-.143H83.075c-.072,0-.131.048-.179.143l-1.284,3.175a.572.572,0,0,1-.536.357H75.8a.348.348,0,0,1-.3-.124.386.386,0,0,1,.017-.375l10.347-24.12a.55.55,0,0,1,.5-.357h6.53a.428.428,0,0,1,.429.357l4.46,24.12v.143q0,.357-.393.357H92.066ZM84.894,81.29c-.071.143-.036.214.107.214H90.14c.119,0,.178-.071.178-.214l-1.5-9.17c-.023-.1-.059-.137-.107-.124a.165.165,0,0,0-.107.124Z" transform="translate(0 -64.77)" fill="#10264e"/>
          <path id="Path_9" data-name="Path 9" d="M204.867,402.488a8.338,8.338,0,0,1-5.995-2.105,7.417,7.417,0,0,1-2.212-5.637,9.93,9.93,0,0,1,.072-1.392l.891-7.315a10.439,10.439,0,0,1,1.731-4.763,9.679,9.679,0,0,1,3.657-3.194,10.872,10.872,0,0,1,4.995-1.142,9.769,9.769,0,0,1,4.424.946,7.014,7.014,0,0,1,2.908,2.587,6.83,6.83,0,0,1,1.017,3.675q0,.321-.071,1.034l-.036.179a.576.576,0,0,1-.16.3.411.411,0,0,1-.3.124h-4.924a.358.358,0,0,1-.286-.124.34.34,0,0,1-.071-.3,1.93,1.93,0,0,0,.036-.429,2.865,2.865,0,0,0-.821-2.087,3.1,3.1,0,0,0-2.319-.839,3.706,3.706,0,0,0-2.676,1.07,4.522,4.522,0,0,0-1.321,2.784l-.963,7.672a3.29,3.29,0,0,0-.035.571,3.146,3.146,0,0,0,.945,2.373,3.333,3.333,0,0,0,2.408.91,3.95,3.95,0,0,0,2.57-.838,3.393,3.393,0,0,0,1.213-2.338l.107-1q.071-.178-.143-.178h-3.461a.358.358,0,0,1-.286-.125.341.341,0,0,1-.071-.3l.464-3.925a.59.59,0,0,1,.16-.3.413.413,0,0,1,.3-.125H215.5a.356.356,0,0,1,.286.125.34.34,0,0,1,.072.3l-.607,4.853a10.381,10.381,0,0,1-1.713,4.709,9.3,9.3,0,0,1-3.639,3.14,11.237,11.237,0,0,1-5.031,1.106Zm21.372,0a8.578,8.578,0,0,1-6.011-2.033A7.027,7.027,0,0,1,218,394.995q0-.429.072-1.285l2-16.057a.585.585,0,0,1,.161-.3.413.413,0,0,1,.3-.124h4.924a.357.357,0,0,1,.285.124.34.34,0,0,1,.072.3l-2,16.057a3.279,3.279,0,0,0-.036.572,3.122,3.122,0,0,0,.839,2.283,3.023,3.023,0,0,0,2.266.856A3.7,3.7,0,0,0,229.5,396.4a4.149,4.149,0,0,0,1.267-2.694l2-16.057a.585.585,0,0,1,.161-.3.413.413,0,0,1,.3-.124h4.924a.361.361,0,0,1,.286.124.343.343,0,0,1,.071.3l-2,16.057a10.08,10.08,0,0,1-1.713,4.6,9.335,9.335,0,0,1-3.6,3.086,11.076,11.076,0,0,1-4.96,1.089Zm12.917-.286a.355.355,0,0,1-.286-.124.34.34,0,0,1-.071-.3l2.962-24.121a.392.392,0,0,1,.142-.3.478.478,0,0,1,.322-.124h4.888q.392,0,.393.428l-2.962,24.121a.583.583,0,0,1-.16.3.412.412,0,0,1-.3.124Zm25.512-24.548a.576.576,0,0,1,.16-.3.416.416,0,0,1,.3-.124h4.924a.359.359,0,0,1,.286.124.34.34,0,0,1,.071.3l-2.961,24.121a.576.576,0,0,1-.16.3.412.412,0,0,1-.3.124h-4.71a.441.441,0,0,1-.464-.285l-6.28-13.631c-.048-.071-.1-.1-.143-.089s-.071.066-.071.161l-1.606,13.416a.585.585,0,0,1-.161.3.409.409,0,0,1-.3.124h-4.924a.354.354,0,0,1-.285-.124.34.34,0,0,1-.072-.3l2.962-24.121a.389.389,0,0,1,.143-.3.478.478,0,0,1,.321-.124h4.746a.417.417,0,0,1,.429.286l6.28,13.594c.023.072.059.1.107.089s.083-.065.107-.16Zm14.985,24.834a8.479,8.479,0,0,1-6.03-2.069,7.259,7.259,0,0,1-2.212-5.566,9.239,9.239,0,0,1,.072-1.32l.963-7.708a10.228,10.228,0,0,1,1.713-4.657,9.376,9.376,0,0,1,3.639-3.122,11.173,11.173,0,0,1,5-1.106,8.939,8.939,0,0,1,6.083,1.945,6.626,6.626,0,0,1,2.231,5.263c0,.237-.024.642-.072,1.213a.355.355,0,0,1-.143.267.474.474,0,0,1-.321.125l-4.96.321c-.261,0-.38-.13-.357-.393a3.983,3.983,0,0,0,.036-.606,3,3,0,0,0-.839-2.248,3.1,3.1,0,0,0-2.266-.82,3.813,3.813,0,0,0-2.676,1.017,4.226,4.226,0,0,0-1.321,2.658l-1,8.1a3.525,3.525,0,0,0,.821,2.8,3.118,3.118,0,0,0,2.283.839,3.832,3.832,0,0,0,2.694-1,4.038,4.038,0,0,0,1.266-2.64.427.427,0,0,1,.464-.393l4.889.25q.392,0,.393.357a9.533,9.533,0,0,1-1.714,4.46,9.252,9.252,0,0,1-3.621,2.979A11.6,11.6,0,0,1,279.654,402.488Zm27.8-24.834a.59.59,0,0,1,.16-.3.416.416,0,0,1,.3-.124h4.924a.358.358,0,0,1,.286.124.34.34,0,0,1,.071.3l-2.962,24.121a.576.576,0,0,1-.16.3.409.409,0,0,1-.3.124h-4.924a.354.354,0,0,1-.285-.124.34.34,0,0,1-.072-.3l1.142-9.491c.048-.12,0-.179-.143-.179h-6.459c-.1,0-.166.059-.214.179l-1.142,9.491a.576.576,0,0,1-.16.3.412.412,0,0,1-.3.124h-4.924a.358.358,0,0,1-.286-.124.34.34,0,0,1-.071-.3l2.962-24.121a.389.389,0,0,1,.143-.3.478.478,0,0,1,.321-.124h4.888c.262,0,.393.143.393.428l-1.141,9.206c0,.119.048.178.142.178h6.495a.183.183,0,0,0,.178-.178l1.142-9.206Z" transform="translate(-177.546 -346.599)" fill="#10264e"/>
        </g>
        <g id="Group_4" data-name="Group 4">
          <path id="Path_12" data-name="Path 12" d="M1462.889,26.381a8.594,8.594,0,0,1-3.817,14.942l0-.027a3.5,3.5,0,0,0-.374-2.619,2.974,2.974,0,0,0-1.758-1.274l-.028,0a4.5,4.5,0,0,0,1.308-.08,4.451,4.451,0,0,0,3.485-3.485,4.524,4.524,0,0,0-1.48-4.345,14.1,14.1,0,0,1-4.443-6.807h4.345A10.278,10.278,0,0,0,1462.889,26.381Zm-8.428,10.027.1.077Zm.2.156c.032.024.065.047.1.07C1454.73,36.61,1454.7,36.588,1454.665,36.563Zm.477.3.053.028Zm.171.088.051.024Zm0,0,.056.026Zm.057.026.052.024Zm.172.076c.038.015.075.03.114.044C1455.617,37.086,1455.58,37.071,1455.542,37.056Zm.115.045.056.021Zm.3.1.055.017-.019-.006a3.839,3.839,0,0,0-2.45.633,4.475,4.475,0,0,0-1.586,1.8,4.475,4.475,0,0,1,1.586-1.8,3.84,3.84,0,0,1,2.45-.633l-.036-.011Zm.183.052.053.013Zm.178.041.058.013Zm.243.045.059.01Zm.184.025.123.013Zm5.829-18.8a2.455,2.455,0,0,1-2.454,2.455h-4.91a2.455,2.455,0,0,1-2.454-2.455V17.75h9.819ZM1467.477-.25a.82.82,0,0,1,.818.818c0,9.846.708,6.189-4.671,15.144a.8.8,0,0,1-.7.4H1452.4a.8.8,0,0,1-.7-.4c-5.381-8.955-4.671-5.3-4.671-15.144a.819.819,0,0,1,.818-.818h19.636Z" transform="translate(-1306.352 0.25)" fill="#ffb300" fill-rule="evenodd"/>
          <g id="Group_3" data-name="Group 3">
            <path id="Path_7" data-name="Path 7" d="M1415.13,358.619a8.482,8.482,0,0,1-5.572-3.28,7.611,7.611,0,0,1-1.088-6.106,10.583,10.583,0,0,1,.339-1.352l2.256-6.829a10.444,10.444,0,0,1,2.66-4.367,9.978,9.978,0,0,1,4.269-2.468,10.921,10.921,0,0,1,5.178-.161,9.716,9.716,0,0,1,4.189,1.808,6.861,6.861,0,0,1,2.325,3.24,8.116,8.116,0,0,1,.2,4.24,9.839,9.839,0,0,1-.339,1.351l-2.22,6.837a10.655,10.655,0,0,1-2.679,4.454,9.873,9.873,0,0,1-4.289,2.481A11.1,11.1,0,0,1,1415.13,358.619Zm1.576-4.854a3.927,3.927,0,0,0,3-.554,4.724,4.724,0,0,0,1.917-2.622l2.339-7.067a4.238,4.238,0,0,0,.159-.624,3.5,3.5,0,0,0-.374-2.619,3.1,3.1,0,0,0-2.149-1.368,3.875,3.875,0,0,0-2.965.561,4.721,4.721,0,0,0-1.917,2.622l-2.3,7.074a5.343,5.343,0,0,0-.173.693,3.405,3.405,0,0,0,.364,2.582A3.063,3.063,0,0,0,1416.705,353.766Z" transform="translate(-1271.396 -301.352)" fill="#10264e"/>
            <path id="Path_10" data-name="Path 10" d="M1467.953,321.1a8.6,8.6,0,0,0,5.307,1.829,9.085,9.085,0,0,0,1.693-.164l.07-.014a.285.285,0,0,1,0-.028,3.5,3.5,0,0,0-.374-2.619,2.975,2.975,0,0,0-1.758-1.274,4.463,4.463,0,0,1-.906-.166,3.84,3.84,0,0,0-2.45.633A4.475,4.475,0,0,0,1467.953,321.1Zm.8-7.58a2.045,2.045,0,0,0-4.091,0v.818a8.588,8.588,0,0,0,2.519,6.077,8.706,8.706,0,0,0,.774.685,4.475,4.475,0,0,1,1.586-1.8,3.839,3.839,0,0,1,2.45-.633,4.5,4.5,0,0,1-3.239-4.325v-.818Z" transform="translate(-1322.303 -281.172)" fill="#ffb300" fill-rule="evenodd"/>
          </g>
        </g>
      </g>
      <path id="Path_11" data-name="Path 11" d="M1449.062,627.428c2.852,0,5.163-.224,5.163-.5s-2.311-.5-5.163-.5-5.162.224-5.162.5S1446.211,627.428,1449.062,627.428Z" transform="translate(-1303.561 -565.52)" fill="#4d4d4d" fill-rule="evenodd"/>
    </g>
  </g>
</svg>
